<svg id="Layer_3" data-name="Layer 3" xmlns="http://www.w3.org/2000/svg" xmlns:xlink="http://www.w3.org/1999/xlink" viewBox="0 0 88.49 110.34"><defs><style>.cls-1,.cls-2,.cls-3,.cls-4,.cls-5{stroke:#000;stroke-miterlimit:10;}.cls-1{fill:url(#linear-gradient);}.cls-2{fill:none;}.cls-4{fill:url(#linear-gradient-2);}.cls-5{stroke-width:4px;}</style><linearGradient id="linear-gradient" x1="18.32" y1="93.43" x2="98.36" y2="93.43" gradientUnits="userSpaceOnUse"><stop offset="0" stop-color="#fff"/><stop offset="0"/></linearGradient><linearGradient id="linear-gradient-2" x1="41.72" y1="96.48" x2="54.44" y2="96.48" xlink:href="#linear-gradient"/></defs><title>cupcakeIcon2</title><path class="cls-1" d="M38.72,113.6l-7-37.92c-5.1-3.79-9.62-3.85-13.44.72l13.56,37.32,55.44.24,11-35.28a15.09,15.09,0,0,0-15.12,1.2l-1.92,33.6" transform="translate(-15.67 -5.92)"/><path class="cls-2" d="M12.8,98.12" transform="translate(-15.67 -5.92)"/><path class="cls-2" d="M78.32,99" transform="translate(-15.67 -5.92)"/><path class="cls-2" d="M78.32,99" transform="translate(-15.67 -5.92)"/><path class="cls-3" d="M56.84,6.68c16.39,1.85,28.8,7.2,24.24,15.84-5.15,5.64-12.33,5.88-20.64,3.12,3.6,11,24.48-1.44,24.48-1.44s12,10.8,6.72,19.2c-16.35,9.53-34.32,13-51.84,2.16,18.24,12.72,38.4,10.32,54,1,11.52,4.56,13.44,17,3.12,25.44-20.16,9.6-48.74,6.49-76.8-4.32-9.6-10.56-.48-23,14.16-22.8-13-9.12-6.48-27.36,14.16-28.32C70.73,18.58,67.83,13.25,56.84,6.68Z" transform="translate(-15.67 -5.92)"/><path class="cls-4" d="M46.52,114.24l-4.8-33.12c4.5-3.08,8.77-3.42,12.72.24l-.72,32.88" transform="translate(-15.67 -5.92)"/><path class="cls-3" d="M65.51,114.13l-3-32.58c4.54-2.78,8.73-2.9,12.41.87l-2.33,32.07" transform="translate(-15.67 -5.92)"/><line class="cls-5" x1="15.43" y1="107.98" x2="72.67" y2="108.34"/></svg>