<svg xmlns="http://www.w3.org/2000/svg" viewBox="0 0 111.65 113.53"><defs><style>.cls-1{stroke:#000;stroke-miterlimit:10;}</style></defs><title>ingrediantsIcon</title><g id="Layer_4" data-name="Layer 4"><path class="cls-1" d="M84.38,25.88c-5-6.54-3.78-14,.9-22C88.46,12.42,88.88,20.12,84.38,25.88Z" transform="translate(-5.21 -2.76)"/><path class="cls-1" d="M23.61,34.83c4.1-7.16,1.84-14.38-3.89-21.63C17.73,22.05,18.36,29.74,23.61,34.83Z" transform="translate(-5.21 -2.76)"/></g><g id="Layer_5" data-name="Layer 5"><path class="cls-1" d="M30.27,47.54c.51-8,6.2-12.62,14.7-15.42C41.85,40.34,37.23,46.22,30.27,47.54Z" transform="translate(-5.21 -2.76)"/><path class="cls-1" d="M24.18,48.85c-2.69-7.27-9.26-10-17.93-10.22C11.43,45.39,17.35,49.57,24.18,48.85Z" transform="translate(-5.21 -2.76)"/><path class="cls-1" d="M88.94,44.54c2.26-7.2,8.5-10.16,16.92-10.82C101.16,40.55,95.61,44.9,88.94,44.54Z" transform="translate(-5.21 -2.76)"/><path class="cls-1" d="M82.62,43.88c-2.26-7.2-8.51-10.16-16.92-10.82C70.4,39.89,76,44.24,82.62,43.88Z" transform="translate(-5.21 -2.76)"/><path class="cls-1" d="M28.05,60.08c-4.15-6.3-11-7.42-19.24-5.74C15.21,59.61,21.74,62.26,28.05,60.08Z" transform="translate(-5.21 -2.76)"/><path class="cls-1" d="M34.12,58.16c1.87-7.31,8-10.6,16.31-11.72C46.11,53.51,40.8,58.15,34.12,58.16Z" transform="translate(-5.21 -2.76)"/><path class="cls-1" d="M27.24,36.89c-.07-6.79,4.46-11.06,11.47-14C36.59,30.08,33.05,35.34,27.24,36.89Z" transform="translate(-5.21 -2.76)"/><path class="cls-1" d="M21.19,38.3c-.68-6.76-5.65-10.5-12.94-12.62C11.15,32.55,15.24,37.39,21.19,38.3Z" transform="translate(-5.21 -2.76)"/><path class="cls-1" d="M89.94,57.88c2.26-7.2,8.5-10.16,16.92-10.82C102.16,53.89,96.61,58.24,89.94,57.88Z" transform="translate(-5.21 -2.76)"/><path class="cls-1" d="M82.74,56.62c-2.26-7.2-8.51-10.16-16.92-10.82C70.52,52.63,76.07,57,82.74,56.62Z" transform="translate(-5.21 -2.76)"/><path class="cls-1" d="M81,68.82C78.74,61.62,72.49,58.66,64.08,58,68.78,64.83,74.33,69.18,81,68.82Z" transform="translate(-5.21 -2.76)"/><path class="cls-1" d="M78.12,82.32c-2.26-7.2-8.51-10.16-16.92-10.82C65.9,78.33,71.45,82.68,78.12,82.32Z" transform="translate(-5.21 -2.76)"/><path class="cls-1" d="M89,70.08c2.26-7.2,8.5-10.16,16.92-10.82C101.18,66.09,95.63,70.44,89,70.08Z" transform="translate(-5.21 -2.76)"/><path class="cls-1" d="M88.64,30.52c2.26-7.2,8.5-10.16,16.92-10.82C100.86,26.53,95.31,30.88,88.64,30.52Z" transform="translate(-5.21 -2.76)"/><path class="cls-1" d="M81.94,31.44C79.68,24.24,73.43,21.28,65,20.62,69.72,27.45,75.27,31.8,81.94,31.44Z" transform="translate(-5.21 -2.76)"/><path class="cls-1" d="M86.46,83c2.26-7.2,8.5-10.16,16.92-10.82C98.68,79.05,93.13,83.4,86.46,83Z" transform="translate(-5.21 -2.76)"/><path class="cls-1" d="M39.9,68.4c1.87-7.31,8-10.6,16.31-11.72C51.89,63.75,46.58,68.39,39.9,68.4Z" transform="translate(-5.21 -2.76)"/><path class="cls-1" d="M45.36,77.88c1.87-7.31,8-10.6,16.31-11.72C57.35,73.23,52,77.87,45.36,77.88Z" transform="translate(-5.21 -2.76)"/><path class="cls-1" d="M32.09,71.62c-4.15-6.3-11-7.42-19.24-5.74C19.25,71.15,25.78,73.8,32.09,71.62Z" transform="translate(-5.21 -2.76)"/><path class="cls-1" d="M37.61,82.36c-4.15-6.3-11-7.42-19.24-5.74C24.77,81.89,31.3,84.54,37.61,82.36Z" transform="translate(-5.21 -2.76)"/></g><g id="Layer_6" data-name="Layer 6"><path class="cls-1" d="M74.48,106.7c11.16,6.48,24.77-10,40-17.46C96,90.25,79.31,92.84,74.48,106.7Z" transform="translate(-5.21 -2.76)"/><path class="cls-1" d="M58.31,103.25c-9.66,8.56-26.26-4.89-42.63-9.21,18.24-2.65,35.15-3.42,42.63,9.21" transform="translate(-5.21 -2.76)"/></g><g id="Layer_3" data-name="Layer 3"><path d="M66.35,114.75c3-6.88,6.21-13.52,9-20.4a148.86,148.86,0,0,0,6.76-21.19A114.27,114.27,0,0,0,85,51c0-1.88.16-3.75.11-5.63s-.05-3.75-.19-5.62-.26-3.74-.45-5.61a19.41,19.41,0,0,0-1.23-5.52l3-.36a20.39,20.39,0,0,0,0,5.73c.16,1.89.23,3.78.35,5.67s.15,3.79.23,5.68.07,3.8.1,5.69a167.15,167.15,0,0,1-1.62,22.76,110.45,110.45,0,0,1-5.49,22.3,73.78,73.78,0,0,1-10.82,20.24Z" transform="translate(-5.21 -2.76)"/><path d="M69.17,113.4A73.51,73.51,0,0,1,52,98.17a110.69,110.69,0,0,1-12.89-19A167,167,0,0,1,29.7,58.38c-.63-1.79-1.34-3.55-1.88-5.37s-1.25-3.58-1.76-5.41S24.92,44,24.42,42.16a20.13,20.13,0,0,0-2-5.36l2.92-.69a19.77,19.77,0,0,0,.77,5.6c.47,1.82,1,3.61,1.52,5.42s1.19,3.56,1.78,5.34S30.74,56,31.42,57.7A113.86,113.86,0,0,0,41.88,77.51,149.5,149.5,0,0,0,55.58,95c5,5.5,10.25,10.62,15.47,16Z" transform="translate(-5.21 -2.76)"/></g></svg>