<svg id="Layer_2" data-name="Layer 2" xmlns="http://www.w3.org/2000/svg" viewBox="0 0 115.47 109.64"><defs><style>.cls-1{stroke:#000;stroke-miterlimit:10;}</style></defs><title>MainCourseIcon</title><path class="cls-1" d="M101.6,97a54.08,54.08,0,0,0,11.64-17.4,47.62,47.62,0,0,0,4-17.28A48.94,48.94,0,0,0,112.28,40,59.1,59.1,0,0,0,96.2,18.68C79.6,5.24,60.23,6.21,56.84,6.44,32.89,8,11.43,25.13,5,45.8A55,55,0,0,0,3.92,72.56a52.53,52.53,0,0,0,7.8,16.92A54.28,54.28,0,0,0,25,102.92L56.12,66.56,44.6,53.84,37.4,55.4l-20.52-20,3.24-2.76,15.48,15,2.4-2L23,30.44l3.36-3,14.4,14.88,2.4-2-15-14.88,2.76-2L51.56,42.68l-1.2,6.48L61,59.84l28.08-37.2c2.71-.62,4.69,0,4.68,4.08C93.11,43.88,85,52.55,74.24,58.28,72.11,60,69.83,63,67.52,66.44Z" transform="translate(-2.26 -5.83)"/><path class="cls-1" d="M36.41,109.85,63.23,73.94l29,30.24C73.24,117,54.68,117.72,36.41,109.85Z" transform="translate(-2.26 -5.83)"/></svg>