<svg id="Layer_2" data-name="Layer 2" xmlns="http://www.w3.org/2000/svg" xmlns:xlink="http://www.w3.org/1999/xlink" viewBox="0 0 114.91 112.3"><defs><style>.cls-1,.cls-2{stroke:#000;stroke-miterlimit:10;}.cls-2{fill:url(#linear-gradient);}</style><linearGradient id="linear-gradient" x1="11.3" y1="95.81" x2="105.98" y2="95.81" gradientUnits="userSpaceOnUse"><stop offset="0" stop-color="#fff"/><stop offset="0"/></linearGradient></defs><title>soupIcon2</title><path class="cls-1" d="M5.72,106.34l108.9-.72c-1,5.15-6.18,8.71-15.3,10.8l-78.84-.36C10.13,113.79,5.9,110.66,5.72,106.34Z" transform="translate(-2.58 -4.62)"/><path class="cls-1" d="M80.42,49.1C79.7,45,94.82,31.82,96.62,22.82c1.6-9.56,6.84-18.18,16-17.28,7.23,6-1.07,15.46-7.74,23-4.85,4.37-4.68,12.78-10.08,19.8" transform="translate(-2.58 -4.62)"/><path class="cls-1" d="M64.58,39C64.18,34,65,30,67.82,27.5c4.38-.7,3.88-3.7-.36-8.46-1.72-2,.66-6.8,3.78-12.06-6.41,5.51-13,10.8-7.74,14.94C60.05,28.12,60.34,33.82,64.58,39Z" transform="translate(-2.58 -4.62)"/><path class="cls-1" d="M53.42,46c-2.33-4.41-.63-8.64,3.06-12.78,2.36-3.61,1.88-7-1.26-10.26-1.21-3.72.11-8,2.88-12.6-5.94,4.86-11.63,8.7-5.94,16,.39,2.87-1.07,5.91-3.06,9C46.22,39.38,50.1,43.44,53.42,46Z" transform="translate(-2.58 -4.62)"/><path class="cls-1" d="M41,47.12c4-1.78,6.12-5.76,4.32-7.2-3.06-3.61,2.16-13.68,2.16-13.68-3.6,5-9.79,8.46-5,13.68A12.88,12.88,0,0,0,41,47.12Z" transform="translate(-2.58 -4.62)"/><path class="cls-1" d="M6.26,49.28l106.56-.36c5.22-1.08,5.94,9.72-.18,8.64,1.11,3.45.62,7.06-1.08,10.8L7.7,70.34a18.87,18.87,0,0,1-.18-12.06C2.12,59.36,1.58,50.9,6.26,49.28Z" transform="translate(-2.58 -4.62)"/><polygon class="cls-1" points="5.48 68.6 108.44 67.34 104.66 78.14 7.46 78.32 5.48 68.6"/><path class="cls-2" d="M87.62,105.44c8.46-6,14.93-12.48,18.36-19.8H11.3A36.64,36.64,0,0,0,27,106" transform="translate(-2.58 -4.62)"/></svg>